<?xml version="1.0" encoding="UTF-8"?><svg xmlns="http://www.w3.org/2000/svg" xmlns:xlink="http://www.w3.org/1999/xlink" fill-opacity="1" color-rendering="auto" color-interpolation="auto" text-rendering="auto" stroke="black" stroke-linecap="square" width="1604" stroke-miterlimit="10" shape-rendering="auto" stroke-opacity="1" fill="black" stroke-dasharray="none" font-weight="normal" stroke-width="1" height="1058" font-family="'Dialog'" font-style="normal" stroke-linejoin="miter" font-size="12px" stroke-dashoffset="0" image-rendering="auto">
  <!--Generated by ySVG 2.5-->
  <defs id="genericDefs"/>
  <g>
    <defs id="defs1">
      <clipPath clipPathUnits="userSpaceOnUse" id="clipPath1">
        <path d="M0 0 L1604 0 L1604 1058 L0 1058 L0 0 Z"/>
      </clipPath>
      <clipPath clipPathUnits="userSpaceOnUse" id="clipPath2">
        <path d="M283 -152 L1887 -152 L1887 906 L283 906 L283 -152 Z"/>
      </clipPath>
    </defs>
    <g stroke-linecap="butt" transform="matrix(1,0,0,1,-283,152)" fill="gray" text-rendering="geometricPrecision" shape-rendering="geometricPrecision" stroke="gray" stroke-width="2" stroke-miterlimit="1.45">
      <rect fill="none" x="492.3325" width="120" height="140" y="269.75" clip-path="url(#clipPath2)"/>
    </g>
    <g stroke-linecap="butt" transform="matrix(1,0,0,1,-283,152)" fill="gray" text-rendering="geometricPrecision" shape-rendering="geometricPrecision" stroke="gray" stroke-width="2" stroke-miterlimit="1.45">
      <rect fill="none" x="663.5075" width="120" height="140" y="-19.75" clip-path="url(#clipPath2)"/>
      <rect fill="none" x="576.3325" width="120" height="140" y="641" clip-path="url(#clipPath2)"/>
      <rect fill="none" x="475.3325" width="120" height="140" y="455.75" clip-path="url(#clipPath2)"/>
      <rect x="831.5" y="342.75" clip-path="url(#clipPath2)" fill="none" width="240" height="220" stroke-width="3"/>
    </g>
    <g stroke-linecap="butt" font-size="20px" transform="matrix(1,0,0,1,-283,152)" fill="rgb(102,102,153)" text-rendering="geometricPrecision" font-family="'Comic Sans MS'" shape-rendering="geometricPrecision" stroke="rgb(102,102,153)" stroke-miterlimit="1.45">
      <text x="876.0557" xml:space="preserve" y="590.791" clip-path="url(#clipPath2)" stroke="none">Ethereum Client</text>
    </g>
    <g stroke-linecap="butt" transform="matrix(1,0,0,1,-283,152)" fill="gray" text-rendering="geometricPrecision" shape-rendering="geometricPrecision" stroke="gray" stroke-width="2" stroke-miterlimit="1.45">
      <rect x="958.5" y="356" clip-path="url(#clipPath2)" fill="none" width="100" rx="4" ry="4" height="80"/>
    </g>
    <g stroke-linecap="butt" font-size="18px" transform="matrix(1,0,0,1,-283,152)" fill="rgb(102,102,153)" text-rendering="geometricPrecision" font-family="'Comic Sans MS'" shape-rendering="geometricPrecision" stroke="rgb(102,102,153)" font-weight="bold" stroke-miterlimit="1.45">
      <text x="988.8608" xml:space="preserve" y="403.2949" clip-path="url(#clipPath2)" stroke="none">EVM</text>
    </g>
    <g stroke-linecap="butt" transform="matrix(1,0,0,1,-283,152)" fill="gray" text-rendering="geometricPrecision" shape-rendering="geometricPrecision" stroke="gray" stroke-width="2" stroke-miterlimit="1.45">
      <rect x="844.5" y="356" clip-path="url(#clipPath2)" fill="none" width="100" rx="4" ry="4" height="80"/>
    </g>
    <g stroke-linecap="butt" font-size="18px" transform="matrix(1,0,0,1,-283,152)" fill="rgb(102,102,153)" text-rendering="geometricPrecision" font-family="'Comic Sans MS'" shape-rendering="geometricPrecision" stroke="rgb(102,102,153)" font-weight="bold" stroke-miterlimit="1.45">
      <text x="846.1558" xml:space="preserve" y="390.7529" clip-path="url(#clipPath2)" stroke="none">JSON-RPC</text>
      <text x="862.3496" xml:space="preserve" y="415.8369" clip-path="url(#clipPath2)" stroke="none">Service</text>
    </g>
    <g stroke-linecap="butt" transform="matrix(1,0,0,1,-283,152)" fill="gray" text-rendering="geometricPrecision" shape-rendering="geometricPrecision" stroke="gray" stroke-width="2" stroke-miterlimit="1.45">
      <rect x="958.5" y="449.5" clip-path="url(#clipPath2)" fill="none" width="100" rx="4" ry="4" height="100"/>
    </g>
    <g stroke-linecap="butt" font-size="18px" transform="matrix(1,0,0,1,-283,152)" fill="rgb(102,102,153)" text-rendering="geometricPrecision" font-family="'Comic Sans MS'" shape-rendering="geometricPrecision" stroke="rgb(102,102,153)" font-weight="bold" stroke-miterlimit="1.45">
      <text x="979.0918" xml:space="preserve" y="475.3369" clip-path="url(#clipPath2)" stroke="none">Ledger</text>
    </g>
    <g stroke-linecap="butt" transform="matrix(1,0,0,1,-283,152)" fill="gray" text-rendering="geometricPrecision" shape-rendering="geometricPrecision" stroke="gray" stroke-width="3" stroke-miterlimit="1.45">
      <circle fill="none" r="12.5" clip-path="url(#clipPath2)" cx="802" cy="396"/>
      <rect x="502.3325" y="282.25" clip-path="url(#clipPath2)" fill="none" width="100" rx="4" ry="4" height="45" stroke-width="2"/>
    </g>
    <g stroke-linecap="butt" font-size="14px" transform="matrix(1,0,0,1,-283,152)" fill="rgb(102,102,153)" text-rendering="geometricPrecision" font-family="'Comic Sans MS'" shape-rendering="geometricPrecision" stroke="rgb(102,102,153)" stroke-miterlimit="1.45">
      <text x="516.2935" xml:space="preserve" y="300.6689" clip-path="url(#clipPath2)" stroke="none">JavaScript</text>
      <text x="516.0645" xml:space="preserve" y="320.1787" clip-path="url(#clipPath2)" stroke="none">Application</text>
    </g>
    <g stroke-linecap="butt" transform="matrix(1,0,0,1,-283,152)" fill="gray" text-rendering="geometricPrecision" shape-rendering="geometricPrecision" stroke="gray" stroke-width="2" stroke-miterlimit="1.45">
      <rect x="502.3325" y="333.25" clip-path="url(#clipPath2)" fill="none" width="100" rx="4" ry="4" height="30"/>
    </g>
    <g stroke-linecap="butt" font-size="18px" transform="matrix(1,0,0,1,-283,152)" fill="rgb(102,102,153)" text-rendering="geometricPrecision" font-family="'Comic Sans MS'" shape-rendering="geometricPrecision" stroke="rgb(102,102,153)" font-weight="bold" stroke-miterlimit="1.45">
      <text x="518.3979" xml:space="preserve" y="355.5449" clip-path="url(#clipPath2)" stroke="none">web3.js</text>
    </g>
    <g stroke-linecap="butt" transform="matrix(1,0,0,1,-283,152)" fill="gray" text-rendering="geometricPrecision" shape-rendering="geometricPrecision" stroke="gray" stroke-width="2" stroke-miterlimit="1.45">
      <path fill="none" d="M965 485.5 L1025 485.5 L1025 529.25 Q1010 516.75 995 529.25 Q980 541.75 965 529.25 Z" clip-path="url(#clipPath2)"/>
    </g>
    <g stroke-linecap="butt" font-size="14px" transform="matrix(1,0,0,1,-283,152)" fill="rgb(102,102,153)" text-rendering="geometricPrecision" font-family="'Comic Sans MS'" shape-rendering="geometricPrecision" stroke="rgb(102,102,153)" font-weight="bold" stroke-miterlimit="1.45">
      <text x="974.1572" xml:space="preserve" y="506.9287" clip-path="url(#clipPath2)" stroke="none">Smart</text>
      <text x="965.8789" xml:space="preserve" y="526.4385" clip-path="url(#clipPath2)" stroke="none">Contract</text>
    </g>
    <g stroke-linecap="butt" transform="matrix(1,0,0,1,-283,152)" fill="gray" text-rendering="geometricPrecision" shape-rendering="geometricPrecision" stroke="gray" stroke-width="2" stroke-miterlimit="1.45">
      <rect x="502.3325" y="369.25" clip-path="url(#clipPath2)" fill="none" width="100" rx="4" ry="4" height="30"/>
    </g>
    <g stroke-linecap="butt" font-size="16px" transform="matrix(1,0,0,1,-283,152)" fill="rgb(102,102,153)" text-rendering="geometricPrecision" font-family="'Comic Sans MS'" shape-rendering="geometricPrecision" stroke="rgb(102,102,153)" stroke-miterlimit="1.45">
      <text x="523.5552" xml:space="preserve" y="390.7344" clip-path="url(#clipPath2)" stroke="none">Node.js</text>
    </g>
    <g stroke-linecap="butt" transform="matrix(1,0,0,1,-283,152)" fill="gray" text-rendering="geometricPrecision" shape-rendering="geometricPrecision" stroke="gray" stroke-width="2" stroke-miterlimit="1.45">
      <rect x="485.3325" y="465.25" clip-path="url(#clipPath2)" fill="none" width="100" rx="4" ry="4" height="45"/>
    </g>
    <g stroke-linecap="butt" font-size="14px" transform="matrix(1,0,0,1,-283,152)" fill="rgb(102,102,153)" text-rendering="geometricPrecision" font-family="'Comic Sans MS'" shape-rendering="geometricPrecision" stroke="rgb(102,102,153)" stroke-miterlimit="1.45">
      <text x="513.3584" xml:space="preserve" y="483.6689" clip-path="url(#clipPath2)" stroke="none">Python</text>
      <text x="499.0644" xml:space="preserve" y="503.1787" clip-path="url(#clipPath2)" stroke="none">Application</text>
    </g>
    <g stroke-linecap="butt" transform="matrix(1,0,0,1,-283,152)" fill="gray" text-rendering="geometricPrecision" shape-rendering="geometricPrecision" stroke="gray" stroke-width="2" stroke-miterlimit="1.45">
      <rect x="485.3325" y="516.25" clip-path="url(#clipPath2)" fill="none" width="100" rx="4" ry="4" height="30"/>
    </g>
    <g stroke-linecap="butt" font-size="18px" transform="matrix(1,0,0,1,-283,152)" fill="rgb(102,102,153)" text-rendering="geometricPrecision" font-family="'Comic Sans MS'" shape-rendering="geometricPrecision" stroke="rgb(102,102,153)" font-weight="bold" stroke-miterlimit="1.45">
      <text x="496.4233" xml:space="preserve" y="538.5449" clip-path="url(#clipPath2)" stroke="none">Web3.py</text>
    </g>
    <g stroke-linecap="butt" transform="matrix(1,0,0,1,-283,152)" fill="gray" text-rendering="geometricPrecision" shape-rendering="geometricPrecision" stroke="gray" stroke-width="2" stroke-miterlimit="1.45">
      <rect x="485.3325" y="552.25" clip-path="url(#clipPath2)" fill="none" width="100" rx="4" ry="4" height="30"/>
    </g>
    <g stroke-linecap="butt" font-size="16px" transform="matrix(1,0,0,1,-283,152)" fill="rgb(102,102,153)" text-rendering="geometricPrecision" font-family="'Comic Sans MS'" shape-rendering="geometricPrecision" stroke="rgb(102,102,153)" stroke-miterlimit="1.45">
      <text x="510.2192" xml:space="preserve" y="573.7344" clip-path="url(#clipPath2)" stroke="none">Python</text>
    </g>
    <g stroke-linecap="butt" transform="matrix(1,0,0,1,-283,152)" fill="gray" text-rendering="geometricPrecision" shape-rendering="geometricPrecision" stroke="gray" stroke-width="2" stroke-miterlimit="1.45">
      <rect x="586.3325" y="651.75" clip-path="url(#clipPath2)" fill="none" width="100" rx="4" ry="4" height="45"/>
    </g>
    <g stroke-linecap="butt" font-size="14px" transform="matrix(1,0,0,1,-283,152)" fill="rgb(102,102,153)" text-rendering="geometricPrecision" font-family="'Comic Sans MS'" shape-rendering="geometricPrecision" stroke="rgb(102,102,153)" stroke-miterlimit="1.45">
      <text x="621.1089" xml:space="preserve" y="670.1689" clip-path="url(#clipPath2)" stroke="none">Java</text>
      <text x="600.0645" xml:space="preserve" y="689.6787" clip-path="url(#clipPath2)" stroke="none">Application</text>
    </g>
    <g stroke-linecap="butt" transform="matrix(1,0,0,1,-283,152)" fill="gray" text-rendering="geometricPrecision" shape-rendering="geometricPrecision" stroke="gray" stroke-width="2" stroke-miterlimit="1.45">
      <rect x="586.3325" y="702.75" clip-path="url(#clipPath2)" fill="none" width="100" rx="4" ry="4" height="30"/>
    </g>
    <g stroke-linecap="butt" font-size="18px" transform="matrix(1,0,0,1,-283,152)" fill="rgb(102,102,153)" text-rendering="geometricPrecision" font-family="'Comic Sans MS'" shape-rendering="geometricPrecision" stroke="rgb(102,102,153)" font-weight="bold" stroke-miterlimit="1.45">
      <text x="607.4824" xml:space="preserve" y="725.0449" clip-path="url(#clipPath2)" stroke="none">Web3j</text>
    </g>
    <g stroke-linecap="butt" transform="matrix(1,0,0,1,-283,152)" fill="gray" text-rendering="geometricPrecision" shape-rendering="geometricPrecision" stroke="gray" stroke-width="2" stroke-miterlimit="1.45">
      <rect x="586.3325" y="738.75" clip-path="url(#clipPath2)" fill="none" width="100" rx="4" ry="4" height="30"/>
    </g>
    <g stroke-linecap="butt" font-size="16px" transform="matrix(1,0,0,1,-283,152)" fill="rgb(102,102,153)" text-rendering="geometricPrecision" font-family="'Comic Sans MS'" shape-rendering="geometricPrecision" stroke="rgb(102,102,153)" stroke-miterlimit="1.45">
      <text x="599.313" xml:space="preserve" y="760.2344" clip-path="url(#clipPath2)" stroke="none">JRE/JVM</text>
    </g>
    <g stroke-linecap="butt" transform="matrix(1,0,0,1,-283,152)" fill="gray" text-rendering="geometricPrecision" shape-rendering="geometricPrecision" stroke="gray" stroke-width="2" stroke-miterlimit="1.45">
      <rect x="672.1075" y="-9" clip-path="url(#clipPath2)" fill="none" width="100" rx="4" ry="4" height="45"/>
    </g>
    <g stroke-linecap="butt" font-size="14px" transform="matrix(1,0,0,1,-283,152)" fill="rgb(102,102,153)" text-rendering="geometricPrecision" font-family="'Comic Sans MS'" shape-rendering="geometricPrecision" stroke="rgb(102,102,153)" stroke-miterlimit="1.45">
      <text x="677.8961" xml:space="preserve" y="9.4189" clip-path="url(#clipPath2)" stroke="none">(Mobile) Web</text>
      <text x="685.8394" xml:space="preserve" y="28.9287" clip-path="url(#clipPath2)" stroke="none">Application</text>
    </g>
    <g stroke-linecap="butt" transform="matrix(1,0,0,1,-283,152)" fill="gray" text-rendering="geometricPrecision" shape-rendering="geometricPrecision" stroke="gray" stroke-width="2" stroke-miterlimit="1.45">
      <rect x="672.1075" y="42" clip-path="url(#clipPath2)" fill="none" width="100" rx="4" ry="4" height="30"/>
    </g>
    <g stroke-linecap="butt" font-size="18px" transform="matrix(1,0,0,1,-283,152)" fill="rgb(102,102,153)" text-rendering="geometricPrecision" font-family="'Comic Sans MS'" shape-rendering="geometricPrecision" stroke="rgb(102,102,153)" font-weight="bold" stroke-miterlimit="1.45">
      <text x="688.1729" xml:space="preserve" y="64.2949" clip-path="url(#clipPath2)" stroke="none">web3.js</text>
    </g>
    <g stroke-linecap="butt" transform="matrix(1,0,0,1,-283,152)" fill="gray" text-rendering="geometricPrecision" shape-rendering="geometricPrecision" stroke="gray" stroke-width="2" stroke-miterlimit="1.45">
      <rect x="672.1075" y="78" clip-path="url(#clipPath2)" fill="none" width="100" rx="4" ry="4" height="30"/>
    </g>
    <g stroke-linecap="butt" font-size="16px" transform="matrix(1,0,0,1,-283,152)" fill="rgb(102,102,153)" text-rendering="geometricPrecision" font-family="'Comic Sans MS'" shape-rendering="geometricPrecision" stroke="rgb(102,102,153)" stroke-miterlimit="1.45">
      <text x="691.42" xml:space="preserve" y="99.4844" clip-path="url(#clipPath2)" stroke="none">Browser</text>
    </g>
    <g stroke-linecap="butt" transform="matrix(1,0,0,1,-283,152)" fill="gray" text-rendering="geometricPrecision" shape-rendering="geometricPrecision" stroke="gray" stroke-width="2" stroke-miterlimit="1.45">
      <rect fill="none" x="352.945" width="90" height="70" y="269.75" clip-path="url(#clipPath2)"/>
    </g>
    <g stroke-linecap="butt" font-size="16px" transform="matrix(1,0,0,1,-283,152)" fill="rgb(102,102,153)" text-rendering="geometricPrecision" font-family="'Comic Sans MS'" shape-rendering="geometricPrecision" stroke="rgb(102,102,153)" stroke-miterlimit="1.45">
      <text x="379.9294" xml:space="preserve" y="300.0859" clip-path="url(#clipPath2)" stroke="none">User</text>
      <text x="360.738" xml:space="preserve" y="322.3828" clip-path="url(#clipPath2)" stroke="none">Interface</text>
    </g>
    <g stroke-linecap="butt" transform="matrix(1,0,0,1,-283,152)" fill="gray" text-rendering="geometricPrecision" shape-rendering="geometricPrecision" stroke="gray" stroke-width="2" stroke-miterlimit="1.45">
      <rect fill="none" x="293.945" width="90" height="70" y="450.125" clip-path="url(#clipPath2)"/>
    </g>
    <g stroke-linecap="butt" font-size="16px" transform="matrix(1,0,0,1,-283,152)" fill="rgb(102,102,153)" text-rendering="geometricPrecision" font-family="'Comic Sans MS'" shape-rendering="geometricPrecision" stroke="rgb(102,102,153)" stroke-miterlimit="1.45">
      <text x="320.9294" xml:space="preserve" y="480.4609" clip-path="url(#clipPath2)" stroke="none">User</text>
      <text x="301.738" xml:space="preserve" y="502.7578" clip-path="url(#clipPath2)" stroke="none">Interface</text>
    </g>
    <g stroke-linecap="butt" transform="matrix(1,0,0,1,-283,152)" fill="gray" text-rendering="geometricPrecision" shape-rendering="geometricPrecision" stroke="gray" stroke-width="2" stroke-miterlimit="1.45">
      <rect fill="none" x="361.545" width="90" height="70" y="639.25" clip-path="url(#clipPath2)"/>
    </g>
    <g stroke-linecap="butt" font-size="16px" transform="matrix(1,0,0,1,-283,152)" fill="rgb(102,102,153)" text-rendering="geometricPrecision" font-family="'Comic Sans MS'" shape-rendering="geometricPrecision" stroke="rgb(102,102,153)" stroke-miterlimit="1.45">
      <text x="388.5294" xml:space="preserve" y="669.5859" clip-path="url(#clipPath2)" stroke="none">User</text>
      <text x="369.338" xml:space="preserve" y="691.8828" clip-path="url(#clipPath2)" stroke="none">Interface</text>
    </g>
    <g stroke-linecap="butt" transform="matrix(1,0,0,1,-283,152)" fill="gray" text-rendering="geometricPrecision" shape-rendering="geometricPrecision" stroke="gray" stroke-width="3" stroke-miterlimit="1.45">
      <circle fill="none" r="10" clip-path="url(#clipPath2)" cx="1505.0425" cy="-120.3125"/>
      <rect x="1581.5425" y="-94.8125" clip-path="url(#clipPath2)" fill="none" width="40" rx="4" ry="4" height="32" stroke-width="2"/>
      <rect x="1533.5425" y="-136.3125" clip-path="url(#clipPath2)" fill="none" width="40" rx="4" ry="4" height="32" stroke-width="2"/>
      <rect x="1581.5425" y="-136.3125" clip-path="url(#clipPath2)" fill="none" width="40" rx="4" ry="4" height="32" stroke-width="2"/>
      <rect fill="none" x="1527.5425" width="100" height="90" y="-141.5625" clip-path="url(#clipPath2)"/>
      <rect fill="none" x="1043.5" width="240" height="220" y="54.5" clip-path="url(#clipPath2)"/>
      <rect x="1170.5" y="67.75" clip-path="url(#clipPath2)" fill="none" width="100" rx="4" ry="4" height="80" stroke-width="2"/>
    </g>
    <g stroke-linecap="butt" font-size="18px" transform="matrix(1,0,0,1,-283,152)" fill="rgb(102,102,153)" text-rendering="geometricPrecision" font-family="'Comic Sans MS'" shape-rendering="geometricPrecision" stroke="rgb(102,102,153)" font-weight="bold" stroke-miterlimit="1.45">
      <text x="1200.8608" xml:space="preserve" y="115.0449" clip-path="url(#clipPath2)" stroke="none">EVM</text>
    </g>
    <g stroke-linecap="butt" transform="matrix(1,0,0,1,-283,152)" fill="gray" text-rendering="geometricPrecision" shape-rendering="geometricPrecision" stroke="gray" stroke-width="2" stroke-miterlimit="1.45">
      <rect x="1056.5" y="67.75" clip-path="url(#clipPath2)" fill="none" width="100" rx="4" ry="4" height="80"/>
    </g>
    <g stroke-linecap="butt" font-size="18px" transform="matrix(1,0,0,1,-283,152)" fill="rgb(102,102,153)" text-rendering="geometricPrecision" font-family="'Comic Sans MS'" shape-rendering="geometricPrecision" stroke="rgb(102,102,153)" font-weight="bold" stroke-miterlimit="1.45">
      <text x="1058.1558" xml:space="preserve" y="102.5029" clip-path="url(#clipPath2)" stroke="none">JSON-RPC</text>
      <text x="1074.3496" xml:space="preserve" y="127.5869" clip-path="url(#clipPath2)" stroke="none">Service</text>
    </g>
    <g stroke-linecap="butt" transform="matrix(1,0,0,1,-283,152)" fill="gray" text-rendering="geometricPrecision" shape-rendering="geometricPrecision" stroke="gray" stroke-width="2" stroke-miterlimit="1.45">
      <rect x="1170.5" y="161.25" clip-path="url(#clipPath2)" fill="none" width="100" rx="4" ry="4" height="100"/>
    </g>
    <g stroke-linecap="butt" font-size="18px" transform="matrix(1,0,0,1,-283,152)" fill="rgb(102,102,153)" text-rendering="geometricPrecision" font-family="'Comic Sans MS'" shape-rendering="geometricPrecision" stroke="rgb(102,102,153)" font-weight="bold" stroke-miterlimit="1.45">
      <text x="1191.0918" xml:space="preserve" y="187.0869" clip-path="url(#clipPath2)" stroke="none">Ledger</text>
    </g>
    <g stroke-linecap="butt" transform="matrix(1,0,0,1,-283,152)" fill="gray" text-rendering="geometricPrecision" shape-rendering="geometricPrecision" stroke="gray" stroke-width="3" stroke-miterlimit="1.45">
      <circle fill="none" r="12.5" clip-path="url(#clipPath2)" cx="1014" cy="107.75"/>
    </g>
    <g stroke-linecap="butt" transform="matrix(1,0,0,1,-283,152)" fill="gray" text-rendering="geometricPrecision" shape-rendering="geometricPrecision" stroke="gray" stroke-width="2" stroke-miterlimit="1.45">
      <path fill="none" d="M1177 197.25 L1237 197.25 L1237 241 Q1222 228.5 1207 241 Q1192 253.5 1177 241 Z" clip-path="url(#clipPath2)"/>
    </g>
    <g stroke-linecap="butt" font-size="14px" transform="matrix(1,0,0,1,-283,152)" fill="rgb(102,102,153)" text-rendering="geometricPrecision" font-family="'Comic Sans MS'" shape-rendering="geometricPrecision" stroke="rgb(102,102,153)" font-weight="bold" stroke-miterlimit="1.45">
      <text x="1186.1572" xml:space="preserve" y="218.6787" clip-path="url(#clipPath2)" stroke="none">Smart</text>
      <text x="1177.8789" xml:space="preserve" y="238.1885" clip-path="url(#clipPath2)" stroke="none">Contract</text>
    </g>
    <g stroke-linecap="butt" transform="matrix(1,0,0,1,-283,152)" fill="gray" text-rendering="geometricPrecision" shape-rendering="geometricPrecision" stroke="gray" stroke-width="3" stroke-miterlimit="1.45">
      <rect fill="none" x="1136" width="240" height="220" y="675.5" clip-path="url(#clipPath2)"/>
      <rect x="1263" y="688.75" clip-path="url(#clipPath2)" fill="none" width="100" rx="4" ry="4" height="80" stroke-width="2"/>
    </g>
    <g stroke-linecap="butt" font-size="18px" transform="matrix(1,0,0,1,-283,152)" fill="rgb(102,102,153)" text-rendering="geometricPrecision" font-family="'Comic Sans MS'" shape-rendering="geometricPrecision" stroke="rgb(102,102,153)" font-weight="bold" stroke-miterlimit="1.45">
      <text x="1293.3608" xml:space="preserve" y="736.0449" clip-path="url(#clipPath2)" stroke="none">EVM</text>
    </g>
    <g stroke-linecap="butt" transform="matrix(1,0,0,1,-283,152)" fill="gray" text-rendering="geometricPrecision" shape-rendering="geometricPrecision" stroke="gray" stroke-width="2" stroke-miterlimit="1.45">
      <rect x="1149" y="688.75" clip-path="url(#clipPath2)" fill="none" width="100" rx="4" ry="4" height="80"/>
    </g>
    <g stroke-linecap="butt" font-size="18px" transform="matrix(1,0,0,1,-283,152)" fill="rgb(102,102,153)" text-rendering="geometricPrecision" font-family="'Comic Sans MS'" shape-rendering="geometricPrecision" stroke="rgb(102,102,153)" font-weight="bold" stroke-miterlimit="1.45">
      <text x="1150.6558" xml:space="preserve" y="723.5029" clip-path="url(#clipPath2)" stroke="none">JSON-RPC</text>
      <text x="1166.8496" xml:space="preserve" y="748.5869" clip-path="url(#clipPath2)" stroke="none">Service</text>
    </g>
    <g stroke-linecap="butt" transform="matrix(1,0,0,1,-283,152)" fill="gray" text-rendering="geometricPrecision" shape-rendering="geometricPrecision" stroke="gray" stroke-width="2" stroke-miterlimit="1.45">
      <rect x="1263" y="782.25" clip-path="url(#clipPath2)" fill="none" width="100" rx="4" ry="4" height="100"/>
    </g>
    <g stroke-linecap="butt" font-size="18px" transform="matrix(1,0,0,1,-283,152)" fill="rgb(102,102,153)" text-rendering="geometricPrecision" font-family="'Comic Sans MS'" shape-rendering="geometricPrecision" stroke="rgb(102,102,153)" font-weight="bold" stroke-miterlimit="1.45">
      <text x="1283.5918" xml:space="preserve" y="808.0869" clip-path="url(#clipPath2)" stroke="none">Ledger</text>
    </g>
    <g stroke-linecap="butt" transform="matrix(1,0,0,1,-283,152)" fill="gray" text-rendering="geometricPrecision" shape-rendering="geometricPrecision" stroke="gray" stroke-width="3" stroke-miterlimit="1.45">
      <circle fill="none" r="12.5" clip-path="url(#clipPath2)" cx="1106.5" cy="728.75"/>
    </g>
    <g stroke-linecap="butt" transform="matrix(1,0,0,1,-283,152)" fill="gray" text-rendering="geometricPrecision" shape-rendering="geometricPrecision" stroke="gray" stroke-width="2" stroke-miterlimit="1.45">
      <path fill="none" d="M1269.5 818.25 L1329.5 818.25 L1329.5 862 Q1314.5 849.5 1299.5 862 Q1284.5 874.5 1269.5 862 Z" clip-path="url(#clipPath2)"/>
    </g>
    <g stroke-linecap="butt" font-size="14px" transform="matrix(1,0,0,1,-283,152)" fill="rgb(102,102,153)" text-rendering="geometricPrecision" font-family="'Comic Sans MS'" shape-rendering="geometricPrecision" stroke="rgb(102,102,153)" font-weight="bold" stroke-miterlimit="1.45">
      <text x="1278.6572" xml:space="preserve" y="839.6787" clip-path="url(#clipPath2)" stroke="none">Smart</text>
      <text x="1270.3789" xml:space="preserve" y="859.1885" clip-path="url(#clipPath2)" stroke="none">Contract</text>
    </g>
    <g stroke-linecap="butt" transform="matrix(1,0,0,1,-283,152)" fill="gray" text-rendering="geometricPrecision" shape-rendering="geometricPrecision" stroke="gray" stroke-width="2" stroke-miterlimit="1.45">
      <path fill="none" d="M1589.0625 -79.0525 L1605.0625 -79.0525 L1605.0625 -68.5525 Q1601.0625 -71.5525 1597.0625 -68.5525 Q1593.0625 -65.5525 1589.0625 -68.5525 Z" clip-path="url(#clipPath2)"/>
    </g>
    <g stroke-linecap="butt" transform="matrix(1,0,0,1,-283,152)" fill="gray" text-rendering="geometricPrecision" shape-rendering="geometricPrecision" stroke="gray" stroke-width="3" stroke-miterlimit="1.45">
      <circle fill="none" r="10" clip-path="url(#clipPath2)" cx="1753.855" cy="-41.25"/>
      <rect x="1830.355" y="-15.75" clip-path="url(#clipPath2)" fill="none" width="40" rx="4" ry="4" height="32" stroke-width="2"/>
      <rect x="1782.355" y="-57.25" clip-path="url(#clipPath2)" fill="none" width="40" rx="4" ry="4" height="32" stroke-width="2"/>
      <rect x="1830.355" y="-57.25" clip-path="url(#clipPath2)" fill="none" width="40" rx="4" ry="4" height="32" stroke-width="2"/>
      <rect fill="none" x="1776.355" width="100" height="90" y="-62.5" clip-path="url(#clipPath2)"/>
    </g>
    <g stroke-linecap="butt" transform="matrix(1,0,0,1,-283,152)" fill="gray" text-rendering="geometricPrecision" shape-rendering="geometricPrecision" stroke="gray" stroke-width="2" stroke-miterlimit="1.45">
      <path fill="none" d="M1837.875 0.01 L1853.875 0.01 L1853.875 10.51 Q1849.875 7.51 1845.875 10.51 Q1841.875 13.51 1837.875 10.51 Z" clip-path="url(#clipPath2)"/>
    </g>
    <g stroke-linecap="butt" transform="matrix(1,0,0,1,-283,152)" fill="gray" text-rendering="geometricPrecision" shape-rendering="geometricPrecision" stroke="gray" stroke-width="3" stroke-miterlimit="1.45">
      <circle fill="none" r="10" clip-path="url(#clipPath2)" cx="1730.375" cy="629.385"/>
      <rect x="1806.875" y="654.885" clip-path="url(#clipPath2)" fill="none" width="40" rx="4" ry="4" height="32" stroke-width="2"/>
      <rect x="1758.875" y="613.385" clip-path="url(#clipPath2)" fill="none" width="40" rx="4" ry="4" height="32" stroke-width="2"/>
      <rect x="1806.875" y="613.385" clip-path="url(#clipPath2)" fill="none" width="40" rx="4" ry="4" height="32" stroke-width="2"/>
      <rect fill="none" x="1752.875" width="100" height="90" y="608.135" clip-path="url(#clipPath2)"/>
    </g>
    <g stroke-linecap="butt" transform="matrix(1,0,0,1,-283,152)" fill="gray" text-rendering="geometricPrecision" shape-rendering="geometricPrecision" stroke="gray" stroke-width="2" stroke-miterlimit="1.45">
      <path fill="none" d="M1814.395 670.645 L1830.395 670.645 L1830.395 681.145 Q1826.395 678.145 1822.395 681.145 Q1818.395 684.145 1814.395 681.145 Z" clip-path="url(#clipPath2)"/>
    </g>
    <g stroke-linecap="butt" transform="matrix(1,0,0,1,-283,152)" fill="gray" text-rendering="geometricPrecision" shape-rendering="geometricPrecision" stroke="gray" stroke-width="3" stroke-miterlimit="1.45">
      <circle fill="none" r="10" clip-path="url(#clipPath2)" cx="1601.5425" cy="790.75"/>
      <rect x="1678.0425" y="816.25" clip-path="url(#clipPath2)" fill="none" width="40" rx="4" ry="4" height="32" stroke-width="2"/>
      <rect x="1630.0425" y="774.75" clip-path="url(#clipPath2)" fill="none" width="40" rx="4" ry="4" height="32" stroke-width="2"/>
      <rect x="1678.0425" y="774.75" clip-path="url(#clipPath2)" fill="none" width="40" rx="4" ry="4" height="32" stroke-width="2"/>
      <rect fill="none" x="1624.0425" width="100" height="90" y="769.5" clip-path="url(#clipPath2)"/>
    </g>
    <g stroke-linecap="butt" transform="matrix(1,0,0,1,-283,152)" fill="gray" text-rendering="geometricPrecision" shape-rendering="geometricPrecision" stroke="gray" stroke-width="2" stroke-miterlimit="1.45">
      <path fill="none" d="M1685.5625 832.01 L1701.5625 832.01 L1701.5625 842.51 Q1697.5625 839.51 1693.5625 842.51 Q1689.5625 845.51 1685.5625 842.51 Z" clip-path="url(#clipPath2)"/>
    </g>
    <g stroke-linecap="butt" transform="matrix(1,0,0,1,-283,152)" fill="gray" text-rendering="geometricPrecision" shape-rendering="geometricPrecision" stroke="gray" stroke-width="2" stroke-miterlimit="1.45">
      <path fill="none" d="M944.5142 396 L958.4798 396" clip-path="url(#clipPath2)"/>
      <path fill="none" d="M1008.5 436.0001 L1008.5 449.4876" clip-path="url(#clipPath2)"/>
      <path fill="none" d="M814.5 396 L844.4609 396" stroke-width="3" clip-path="url(#clipPath2)"/>
      <path fill="none" d="M602.3515 350.6384 L793.0386 387.3098" clip-path="url(#clipPath2)" stroke="rgb(153,153,153)"/>
      <path fill="none" d="M566.7147 516.2348 L795.6069 406.7185" clip-path="url(#clipPath2)" stroke="rgb(153,153,153)"/>
      <path fill="none" d="M442.945 304.75 L502.3123 304.75" clip-path="url(#clipPath2)" stroke="rgb(153,153,153)"/>
      <path fill="none" d="M383.945 485.7265 L485.3258 487.0816" clip-path="url(#clipPath2)" stroke="rgb(153,153,153)"/>
      <path fill="none" d="M451.545 674.25 L586.3009 674.25" clip-path="url(#clipPath2)" stroke="rgb(153,153,153)"/>
      <path fill="none" d="M1515.0425 -120.3125 L1533.5781 -120.3125" stroke-width="3" clip-path="url(#clipPath2)"/>
      <path fill="none" d="M1573.5581 -120.3125 L1581.5654 -120.3125" clip-path="url(#clipPath2)"/>
      <path fill="none" d="M1601.5425 -104.3042 L1601.5425 -94.7946" clip-path="url(#clipPath2)"/>
      <path fill="none" stroke-dasharray="12,4" d="M1032.402 342.75 L1082.598 274.5" clip-path="url(#clipPath2)"/>
      <path fill="none" stroke-dasharray="12,4" d="M1283.5 88.8375 L1527.5425 -65.0364" clip-path="url(#clipPath2)"/>
      <path fill="none" d="M1156.5142 107.75 L1170.4799 107.75" clip-path="url(#clipPath2)"/>
      <path fill="none" d="M1220.5 147.7501 L1220.5 161.2376" clip-path="url(#clipPath2)"/>
      <path fill="none" d="M772.0984 65.6917 L1001.6848 105.6088" clip-path="url(#clipPath2)" stroke="rgb(153,153,153)"/>
      <path fill="none" d="M1026.5 107.75 L1056.4609 107.75" stroke-width="3" clip-path="url(#clipPath2)"/>
      <path fill="none" stroke-dasharray="12,4" d="M1031.959 562.7519 L1145.3616 675.5" clip-path="url(#clipPath2)"/>
      <path fill="none" d="M1249.0142 728.75 L1262.9799 728.75" clip-path="url(#clipPath2)"/>
      <path fill="none" d="M1313 768.7501 L1313 782.2377" clip-path="url(#clipPath2)"/>
      <path fill="none" d="M686.3061 718.9511 L1094 728.75" clip-path="url(#clipPath2)" stroke="rgb(153,153,153)"/>
      <path fill="none" d="M1119 728.75 L1148.9609 728.75" stroke-width="3" clip-path="url(#clipPath2)"/>
      <path fill="none" d="M1763.855 -41.25 L1782.3906 -41.25" stroke-width="3" clip-path="url(#clipPath2)"/>
      <path fill="none" d="M1822.3706 -41.25 L1830.3779 -41.25" clip-path="url(#clipPath2)"/>
      <path fill="none" d="M1850.355 -25.2417 L1850.355 -15.7321" clip-path="url(#clipPath2)"/>
      <path fill="none" stroke-dasharray="12,4" d="M1627.5425 -96.5625 L1715.1295 -96.5625 L1776.355 -53.0415" clip-path="url(#clipPath2)"/>
      <path fill="none" d="M1740.375 629.385 L1758.9106 629.385" stroke-width="3" clip-path="url(#clipPath2)"/>
      <path fill="none" d="M1798.8906 629.385 L1806.8978 629.385" clip-path="url(#clipPath2)"/>
      <path fill="none" d="M1826.875 645.3933 L1826.875 654.9029" clip-path="url(#clipPath2)"/>
      <path fill="none" stroke-dasharray="12,4" d="M1071.5 484.7606 L1752.887 666.5239" clip-path="url(#clipPath2)"/>
      <path fill="none" d="M1611.5425 790.75 L1630.0781 790.75" stroke-width="3" clip-path="url(#clipPath2)"/>
      <path fill="none" d="M1670.0581 790.75 L1678.0654 790.75" clip-path="url(#clipPath2)"/>
      <path fill="none" d="M1698.0425 806.7583 L1698.0425 816.2679" clip-path="url(#clipPath2)"/>
      <path fill="none" stroke-dasharray="12,4" d="M1376 793.8245 L1624.0425 811.0314" clip-path="url(#clipPath2)"/>
      <path fill="none" stroke-dasharray="12,4" d="M1724.0133 797.5983 L1777.275 775.11 L1793.4304 698.135" clip-path="url(#clipPath2)"/>
    </g>
  </g>
</svg>
