<?xml version="1.0" encoding="UTF-8"?><svg xmlns="http://www.w3.org/2000/svg" xmlns:xlink="http://www.w3.org/1999/xlink" fill-opacity="1" color-rendering="auto" color-interpolation="auto" text-rendering="auto" stroke="black" stroke-linecap="square" width="1387" stroke-miterlimit="10" shape-rendering="auto" stroke-opacity="1" fill="black" stroke-dasharray="none" font-weight="normal" stroke-width="1" height="785" font-family="'Dialog'" font-style="normal" stroke-linejoin="miter" font-size="12px" stroke-dashoffset="0" image-rendering="auto">
  <!--Generated by ySVG 2.5-->
  <defs id="genericDefs"/>
  <g>
    <defs id="defs1">
      <clipPath clipPathUnits="userSpaceOnUse" id="clipPath1">
        <path d="M0 0 L1387 0 L1387 785 L0 785 L0 0 Z"/>
      </clipPath>
      <clipPath clipPathUnits="userSpaceOnUse" id="clipPath2">
        <path d="M266 61 L1653 61 L1653 846 L266 846 L266 61 Z"/>
      </clipPath>
    </defs>
    <g fill="rgb(255,204,153)" text-rendering="geometricPrecision" shape-rendering="geometricPrecision" transform="matrix(1,0,0,1,-266,-61)" stroke="rgb(255,204,153)">
      <ellipse rx="73" ry="26" clip-path="url(#clipPath2)" cx="646" cy="259" stroke="none"/>
    </g>
    <g stroke-linecap="butt" transform="matrix(1,0,0,1,-266,-61)" fill="rgb(204,153,255)" text-rendering="geometricPrecision" shape-rendering="geometricPrecision" stroke="rgb(204,153,255)" stroke-width="2" stroke-miterlimit="1.45">
      <ellipse rx="73" fill="none" ry="26" clip-path="url(#clipPath2)" cx="646" cy="259"/>
    </g>
    <g stroke-linecap="butt" font-size="14px" transform="matrix(1,0,0,1,-266,-61)" fill="purple" text-rendering="geometricPrecision" font-family="'Comic Sans MS'" shape-rendering="geometricPrecision" stroke="purple" font-weight="bold" stroke-miterlimit="1.45">
      <text x="593.001" xml:space="preserve" y="264.6738" clip-path="url(#clipPath2)" stroke="none">Smart Contract</text>
    </g>
    <g stroke-linecap="butt" transform="matrix(1,0,0,1,-266,-61)" fill="rgb(204,153,255)" text-rendering="geometricPrecision" shape-rendering="geometricPrecision" stroke="rgb(204,153,255)" stroke-width="2" stroke-miterlimit="1.45">
      <ellipse rx="48" fill="none" ry="21" clip-path="url(#clipPath2)" cx="810" cy="259"/>
    </g>
    <g stroke-linecap="butt" font-size="14px" transform="matrix(1,0,0,1,-266,-61)" fill="purple" text-rendering="geometricPrecision" font-family="'Comic Sans MS'" shape-rendering="geometricPrecision" stroke="purple" font-weight="bold" stroke-miterlimit="1.45">
      <text x="779.7168" xml:space="preserve" y="264.6738" clip-path="url(#clipPath2)" stroke="none">Language</text>
    </g>
    <g stroke-linecap="butt" transform="matrix(1,0,0,1,-266,-61)" fill="rgb(204,153,255)" text-rendering="geometricPrecision" shape-rendering="geometricPrecision" stroke="rgb(204,153,255)" stroke-width="2" stroke-miterlimit="1.45">
      <ellipse rx="48" fill="none" ry="21" clip-path="url(#clipPath2)" cx="960" cy="180"/>
    </g>
    <g stroke-linecap="butt" font-size="14px" transform="matrix(1,0,0,1,-266,-61)" fill="purple" text-rendering="geometricPrecision" font-family="'Comic Sans MS'" shape-rendering="geometricPrecision" stroke="purple" font-weight="bold" stroke-miterlimit="1.45">
      <text x="940.3877" xml:space="preserve" y="185.6738" clip-path="url(#clipPath2)" stroke="none">Vyper</text>
    </g>
    <g fill="rgb(255,255,153)" text-rendering="geometricPrecision" shape-rendering="geometricPrecision" transform="matrix(1,0,0,1,-266,-61)" stroke="rgb(255,255,153)">
      <ellipse rx="48" ry="21" clip-path="url(#clipPath2)" cx="960" cy="286" stroke="none"/>
    </g>
    <g stroke-linecap="butt" transform="matrix(1,0,0,1,-266,-61)" fill="rgb(204,153,255)" text-rendering="geometricPrecision" shape-rendering="geometricPrecision" stroke="rgb(204,153,255)" stroke-width="2" stroke-miterlimit="1.45">
      <ellipse rx="48" fill="none" ry="21" clip-path="url(#clipPath2)" cx="960" cy="286"/>
    </g>
    <g stroke-linecap="butt" font-size="14px" transform="matrix(1,0,0,1,-266,-61)" fill="purple" text-rendering="geometricPrecision" font-family="'Comic Sans MS'" shape-rendering="geometricPrecision" stroke="purple" font-weight="bold" stroke-miterlimit="1.45">
      <text x="934.3447" xml:space="preserve" y="291.6738" clip-path="url(#clipPath2)" stroke="none">Solidity</text>
    </g>
    <g stroke-linecap="butt" transform="matrix(1,0,0,1,-266,-61)" fill="rgb(204,153,255)" text-rendering="geometricPrecision" shape-rendering="geometricPrecision" stroke="rgb(204,153,255)" stroke-width="2" stroke-miterlimit="1.45">
      <ellipse rx="48" fill="none" ry="21" clip-path="url(#clipPath2)" cx="1140" cy="168"/>
    </g>
    <g stroke-linecap="butt" font-size="14px" transform="matrix(1,0,0,1,-266,-61)" fill="purple" text-rendering="geometricPrecision" font-family="'Comic Sans MS'" shape-rendering="geometricPrecision" stroke="purple" font-weight="bold" stroke-miterlimit="1.45">
      <text x="1115.2847" xml:space="preserve" y="173.6738" clip-path="url(#clipPath2)" stroke="none">Version</text>
    </g>
    <g fill="rgb(255,255,153)" text-rendering="geometricPrecision" shape-rendering="geometricPrecision" transform="matrix(1,0,0,1,-266,-61)" stroke="rgb(255,255,153)">
      <ellipse rx="48" ry="21" clip-path="url(#clipPath2)" cx="1328" cy="97.6" stroke="none"/>
    </g>
    <g stroke-linecap="butt" transform="matrix(1,0,0,1,-266,-61)" fill="rgb(204,153,255)" text-rendering="geometricPrecision" shape-rendering="geometricPrecision" stroke="rgb(204,153,255)" stroke-width="2" stroke-miterlimit="1.45">
      <ellipse rx="48" fill="none" ry="21" clip-path="url(#clipPath2)" cx="1328" cy="97.6"/>
    </g>
    <g stroke-linecap="butt" font-size="14px" transform="matrix(1,0,0,1,-266,-61)" fill="purple" text-rendering="geometricPrecision" font-family="'Comic Sans MS'" shape-rendering="geometricPrecision" stroke="purple" font-weight="bold" stroke-miterlimit="1.45">
      <text x="1304.8398" xml:space="preserve" y="103.2738" clip-path="url(#clipPath2)" stroke="none">^0.5.0</text>
    </g>
    <g stroke-linecap="butt" transform="matrix(1,0,0,1,-266,-61)" fill="rgb(204,153,255)" text-rendering="geometricPrecision" shape-rendering="geometricPrecision" stroke="rgb(204,153,255)" stroke-width="2" stroke-miterlimit="1.45">
      <ellipse rx="48" fill="none" ry="21" clip-path="url(#clipPath2)" cx="1328" cy="150"/>
    </g>
    <g stroke-linecap="butt" font-size="14px" transform="matrix(1,0,0,1,-266,-61)" fill="purple" text-rendering="geometricPrecision" font-family="'Comic Sans MS'" shape-rendering="geometricPrecision" stroke="purple" font-weight="bold" stroke-miterlimit="1.45">
      <text x="1304.8398" xml:space="preserve" y="155.6738" clip-path="url(#clipPath2)" stroke="none">^0.6.0</text>
    </g>
    <g stroke-linecap="butt" transform="matrix(1,0,0,1,-266,-61)" fill="rgb(204,153,255)" text-rendering="geometricPrecision" shape-rendering="geometricPrecision" stroke="rgb(204,153,255)" stroke-width="2" stroke-miterlimit="1.45">
      <ellipse rx="48" fill="none" ry="21" clip-path="url(#clipPath2)" cx="1140" cy="227.4"/>
    </g>
    <g stroke-linecap="butt" font-size="14px" transform="matrix(1,0,0,1,-266,-61)" fill="purple" text-rendering="geometricPrecision" font-family="'Comic Sans MS'" shape-rendering="geometricPrecision" stroke="purple" font-weight="bold" stroke-miterlimit="1.45">
      <text x="1109.8604" xml:space="preserve" y="233.0738" clip-path="url(#clipPath2)" stroke="none">Grammar</text>
    </g>
    <g stroke-linecap="butt" transform="matrix(1,0,0,1,-266,-61)" fill="rgb(204,153,255)" text-rendering="geometricPrecision" shape-rendering="geometricPrecision" stroke="rgb(204,153,255)" stroke-width="2" stroke-miterlimit="1.45">
      <ellipse rx="48" fill="none" ry="21" clip-path="url(#clipPath2)" cx="1328" cy="210"/>
    </g>
    <g stroke-linecap="butt" font-size="14px" transform="matrix(1,0,0,1,-266,-61)" fill="purple" text-rendering="geometricPrecision" font-family="'Malgun Gothic'" shape-rendering="geometricPrecision" stroke="purple" font-weight="bold" stroke-miterlimit="1.45">
      <text x="1300" xml:space="preserve" y="215.9268" clip-path="url(#clipPath2)" stroke="none">교육과정</text>
    </g>
    <g stroke-linecap="butt" transform="matrix(1,0,0,1,-266,-61)" fill="rgb(204,153,255)" text-rendering="geometricPrecision" shape-rendering="geometricPrecision" stroke="rgb(204,153,255)" stroke-width="2" stroke-miterlimit="1.45">
      <ellipse rx="48" fill="none" ry="21" clip-path="url(#clipPath2)" cx="1490.4" cy="210"/>
    </g>
    <g stroke-linecap="butt" font-size="14px" transform="matrix(1,0,0,1,-266,-61)" fill="purple" text-rendering="geometricPrecision" font-family="'Comic Sans MS'" shape-rendering="geometricPrecision" stroke="purple" font-weight="bold" stroke-miterlimit="1.45">
      <text x="1453.9713" xml:space="preserve" y="205.9189" clip-path="url(#clipPath2)" stroke="none">Mastering </text>
      <text x="1458.4181" xml:space="preserve" y="225.4287" clip-path="url(#clipPath2)" stroke="none">Ethereum</text>
    </g>
    <g stroke-linecap="butt" transform="matrix(1,0,0,1,-266,-61)" fill="rgb(204,153,255)" text-rendering="geometricPrecision" shape-rendering="geometricPrecision" stroke="rgb(204,153,255)" stroke-width="2" stroke-miterlimit="1.45">
      <ellipse rx="48" fill="none" ry="21" clip-path="url(#clipPath2)" cx="1328" cy="262.2"/>
    </g>
    <g stroke-linecap="butt" font-size="14px" transform="matrix(1,0,0,1,-266,-61)" fill="purple" text-rendering="geometricPrecision" font-family="'Malgun Gothic'" shape-rendering="geometricPrecision" stroke="purple" font-weight="bold" stroke-miterlimit="1.45">
      <text x="1300" xml:space="preserve" y="268.1268" clip-path="url(#clipPath2)" stroke="none">참고서적</text>
    </g>
    <g stroke-linecap="butt" transform="matrix(1,0,0,1,-266,-61)" fill="rgb(204,153,255)" text-rendering="geometricPrecision" shape-rendering="geometricPrecision" stroke="rgb(204,153,255)" stroke-width="2" stroke-miterlimit="1.45">
      <ellipse rx="54.3" fill="none" ry="30.5" clip-path="url(#clipPath2)" cx="1490.4" cy="276.5"/>
    </g>
    <g stroke-linecap="butt" transform="matrix(1,0,0,1,-266,-61)" fill="purple" text-rendering="geometricPrecision" font-family="'Comic Sans MS'" shape-rendering="geometricPrecision" stroke="purple" font-weight="bold" stroke-miterlimit="1.45">
      <text x="1447.691" xml:space="preserve" y="264.6406" clip-path="url(#clipPath2)" stroke="none">Building Games</text>
      <text x="1448.3063" xml:space="preserve" y="281.3633" clip-path="url(#clipPath2)" stroke="none">with Ethereum</text>
      <text x="1442.0514" xml:space="preserve" y="298.0859" clip-path="url(#clipPath2)" stroke="none">Smart Contracts</text>
    </g>
    <g stroke-linecap="butt" transform="matrix(1,0,0,1,-266,-61)" fill="rgb(204,153,255)" text-rendering="geometricPrecision" shape-rendering="geometricPrecision" stroke="rgb(204,153,255)" stroke-width="2" stroke-miterlimit="1.45">
      <ellipse rx="48" fill="none" ry="21" clip-path="url(#clipPath2)" cx="1140" cy="330"/>
    </g>
    <g stroke-linecap="butt" font-size="14px" transform="matrix(1,0,0,1,-266,-61)" fill="purple" text-rendering="geometricPrecision" font-family="'Comic Sans MS'" shape-rendering="geometricPrecision" stroke="purple" font-weight="bold" stroke-miterlimit="1.45">
      <text x="1115.5444" xml:space="preserve" y="335.6738" clip-path="url(#clipPath2)" stroke="none">Library</text>
    </g>
    <g stroke-linecap="butt" transform="matrix(1,0,0,1,-266,-61)" fill="rgb(204,153,255)" text-rendering="geometricPrecision" shape-rendering="geometricPrecision" stroke="rgb(204,153,255)" stroke-width="2" stroke-miterlimit="1.45">
      <ellipse rx="48" fill="none" ry="21" clip-path="url(#clipPath2)" cx="1140" cy="410.9"/>
    </g>
    <g stroke-linecap="butt" font-size="14px" transform="matrix(1,0,0,1,-266,-61)" fill="purple" text-rendering="geometricPrecision" font-family="'Malgun Gothic'" shape-rendering="geometricPrecision" stroke="purple" font-weight="bold" stroke-miterlimit="1.45">
      <text x="1112" xml:space="preserve" y="416.8268" clip-path="url(#clipPath2)" stroke="none">개발환경</text>
    </g>
    <g fill="rgb(255,255,153)" text-rendering="geometricPrecision" shape-rendering="geometricPrecision" transform="matrix(1,0,0,1,-266,-61)" stroke="rgb(255,255,153)">
      <ellipse rx="48" ry="21" clip-path="url(#clipPath2)" cx="1328" cy="330" stroke="none"/>
    </g>
    <g stroke-linecap="butt" transform="matrix(1,0,0,1,-266,-61)" fill="rgb(204,153,255)" text-rendering="geometricPrecision" shape-rendering="geometricPrecision" stroke="rgb(204,153,255)" stroke-width="2" stroke-miterlimit="1.45">
      <ellipse rx="48" fill="none" ry="21" clip-path="url(#clipPath2)" cx="1328" cy="330"/>
    </g>
    <g stroke-linecap="butt" font-size="14px" transform="matrix(1,0,0,1,-266,-61)" fill="purple" text-rendering="geometricPrecision" font-family="'Comic Sans MS'" shape-rendering="geometricPrecision" stroke="purple" font-weight="bold" stroke-miterlimit="1.45">
      <text x="1280.3467" xml:space="preserve" y="335.6738" clip-path="url(#clipPath2)" stroke="none">Open Zeppelin</text>
    </g>
    <g stroke-linecap="butt" transform="matrix(1,0,0,1,-266,-61)" fill="rgb(204,153,255)" text-rendering="geometricPrecision" shape-rendering="geometricPrecision" stroke="rgb(204,153,255)" stroke-width="2" stroke-miterlimit="1.45">
      <ellipse rx="48" fill="none" ry="21" clip-path="url(#clipPath2)" cx="1328" cy="402"/>
    </g>
    <g stroke-linecap="butt" font-size="14px" transform="matrix(1,0,0,1,-266,-61)" fill="purple" text-rendering="geometricPrecision" font-family="'Malgun Gothic'" shape-rendering="geometricPrecision" stroke="purple" font-weight="bold" stroke-miterlimit="1.45">
      <text x="1300" xml:space="preserve" y="407.9268" clip-path="url(#clipPath2)" stroke="none">개발도구</text>
    </g>
    <g stroke-linecap="butt" transform="matrix(1,0,0,1,-266,-61)" fill="rgb(204,153,255)" text-rendering="geometricPrecision" shape-rendering="geometricPrecision" stroke="rgb(204,153,255)" stroke-width="2" stroke-miterlimit="1.45">
      <ellipse rx="48" fill="none" ry="21" clip-path="url(#clipPath2)" cx="1328" cy="530"/>
    </g>
    <g stroke-linecap="butt" font-size="14px" transform="matrix(1,0,0,1,-266,-61)" fill="purple" text-rendering="geometricPrecision" font-family="'Malgun Gothic'" shape-rendering="geometricPrecision" stroke="purple" font-weight="bold" stroke-miterlimit="1.45">
      <text x="1305.4277" xml:space="preserve" y="526.6162" clip-path="url(#clipPath2)" stroke="none">Source</text>
      <text x="1300" xml:space="preserve" y="545.2373" clip-path="url(#clipPath2)" stroke="none">형상관리</text>
    </g>
    <g fill="rgb(255,255,153)" text-rendering="geometricPrecision" shape-rendering="geometricPrecision" transform="matrix(1,0,0,1,-266,-61)" stroke="rgb(255,255,153)">
      <ellipse rx="48" ry="21" clip-path="url(#clipPath2)" cx="1484.1" cy="358" stroke="none"/>
    </g>
    <g stroke-linecap="butt" transform="matrix(1,0,0,1,-266,-61)" fill="rgb(204,153,255)" text-rendering="geometricPrecision" shape-rendering="geometricPrecision" stroke="rgb(204,153,255)" stroke-width="2" stroke-miterlimit="1.45">
      <ellipse rx="48" fill="none" ry="21" clip-path="url(#clipPath2)" cx="1484.1" cy="358"/>
    </g>
    <g stroke-linecap="butt" font-size="14px" transform="matrix(1,0,0,1,-266,-61)" fill="purple" text-rendering="geometricPrecision" font-family="'Malgun Gothic'" shape-rendering="geometricPrecision" stroke="purple" font-weight="bold" stroke-miterlimit="1.45">
      <text x="1462.0233" xml:space="preserve" y="363.9268" clip-path="url(#clipPath2)" stroke="none">Truffle</text>
    </g>
    <g fill="rgb(255,255,153)" text-rendering="geometricPrecision" shape-rendering="geometricPrecision" transform="matrix(1,0,0,1,-266,-61)" stroke="rgb(255,255,153)">
      <ellipse rx="48" ry="21" clip-path="url(#clipPath2)" cx="1590" cy="390" stroke="none"/>
    </g>
    <g stroke-linecap="butt" transform="matrix(1,0,0,1,-266,-61)" fill="rgb(204,153,255)" text-rendering="geometricPrecision" shape-rendering="geometricPrecision" stroke="rgb(204,153,255)" stroke-width="2" stroke-miterlimit="1.45">
      <ellipse rx="48" fill="none" ry="21" clip-path="url(#clipPath2)" cx="1590" cy="390"/>
    </g>
    <g stroke-linecap="butt" font-size="14px" transform="matrix(1,0,0,1,-266,-61)" fill="purple" text-rendering="geometricPrecision" font-family="'Malgun Gothic'" shape-rendering="geometricPrecision" stroke="purple" font-weight="bold" stroke-miterlimit="1.45">
      <text x="1555.3657" xml:space="preserve" y="395.9268" clip-path="url(#clipPath2)" stroke="none">Remix-IDE</text>
    </g>
    <g stroke-linecap="butt" transform="matrix(1,0,0,1,-266,-61)" fill="rgb(204,153,255)" text-rendering="geometricPrecision" shape-rendering="geometricPrecision" stroke="rgb(204,153,255)" stroke-width="2" stroke-miterlimit="1.45">
      <ellipse rx="48" fill="none" ry="21" clip-path="url(#clipPath2)" cx="1484.1" cy="420"/>
    </g>
    <g stroke-linecap="butt" font-size="14px" transform="matrix(1,0,0,1,-266,-61)" fill="purple" text-rendering="geometricPrecision" font-family="'Malgun Gothic'" shape-rendering="geometricPrecision" stroke="purple" font-weight="bold" stroke-miterlimit="1.45">
      <text x="1459.0394" xml:space="preserve" y="425.9268" clip-path="url(#clipPath2)" stroke="none">Embark</text>
    </g>
    <g stroke-linecap="butt" transform="matrix(1,0,0,1,-266,-61)" fill="rgb(204,153,255)" text-rendering="geometricPrecision" shape-rendering="geometricPrecision" stroke="rgb(204,153,255)" stroke-width="2" stroke-miterlimit="1.45">
      <ellipse rx="48" fill="none" ry="21" clip-path="url(#clipPath2)" cx="1590" cy="462"/>
    </g>
    <g stroke-linecap="butt" font-size="14px" transform="matrix(1,0,0,1,-266,-61)" fill="purple" text-rendering="geometricPrecision" font-family="'Malgun Gothic'" shape-rendering="geometricPrecision" stroke="purple" font-weight="bold" stroke-miterlimit="1.45">
      <text x="1571.584" xml:space="preserve" y="467.9268" clip-path="url(#clipPath2)" stroke="none">Atom</text>
    </g>
    <g stroke-linecap="butt" transform="matrix(1,0,0,1,-266,-61)" fill="rgb(204,153,255)" text-rendering="geometricPrecision" shape-rendering="geometricPrecision" stroke="rgb(204,153,255)" stroke-width="2" stroke-miterlimit="1.45">
      <ellipse rx="48" fill="none" ry="21" clip-path="url(#clipPath2)" cx="1484.1" cy="482"/>
    </g>
    <g stroke-linecap="butt" font-size="14px" transform="matrix(1,0,0,1,-266,-61)" fill="purple" text-rendering="geometricPrecision" font-family="'Malgun Gothic'" shape-rendering="geometricPrecision" stroke="purple" font-weight="bold" stroke-miterlimit="1.45">
      <text x="1455.9427" xml:space="preserve" y="487.9268" clip-path="url(#clipPath2)" stroke="none">VS Code</text>
    </g>
    <g stroke-linecap="butt" transform="matrix(1,0,0,1,-266,-61)" fill="rgb(204,153,255)" text-rendering="geometricPrecision" shape-rendering="geometricPrecision" stroke="rgb(204,153,255)" stroke-width="2" stroke-miterlimit="1.45">
      <ellipse rx="48" fill="none" ry="21" clip-path="url(#clipPath2)" cx="1328" cy="586"/>
    </g>
    <g stroke-linecap="butt" font-size="14px" transform="matrix(1,0,0,1,-266,-61)" fill="purple" text-rendering="geometricPrecision" font-family="'Malgun Gothic'" shape-rendering="geometricPrecision" stroke="purple" font-weight="bold" stroke-miterlimit="1.45">
      <text x="1284.5234" xml:space="preserve" y="591.9268" clip-path="url(#clipPath2)" stroke="none">Build/Deploy</text>
    </g>
    <g stroke-linecap="butt" transform="matrix(1,0,0,1,-266,-61)" fill="rgb(204,153,255)" text-rendering="geometricPrecision" shape-rendering="geometricPrecision" stroke="rgb(204,153,255)" stroke-width="2" stroke-miterlimit="1.45">
      <ellipse rx="48" fill="none" ry="21" clip-path="url(#clipPath2)" cx="1484.1" cy="586"/>
    </g>
    <g stroke-linecap="butt" font-size="14px" transform="matrix(1,0,0,1,-266,-61)" fill="purple" text-rendering="geometricPrecision" font-family="'Malgun Gothic'" shape-rendering="geometricPrecision" stroke="purple" font-weight="bold" stroke-miterlimit="1.45">
      <text x="1459.6786" xml:space="preserve" y="591.9268" clip-path="url(#clipPath2)" stroke="none">Jenkins</text>
    </g>
    <g stroke-linecap="butt" transform="matrix(1,0,0,1,-266,-61)" fill="rgb(204,153,255)" text-rendering="geometricPrecision" shape-rendering="geometricPrecision" stroke="rgb(204,153,255)" stroke-width="2" stroke-miterlimit="1.45">
      <ellipse rx="48" fill="none" ry="21" clip-path="url(#clipPath2)" cx="1328" cy="642"/>
    </g>
    <g stroke-linecap="butt" font-size="14px" transform="matrix(1,0,0,1,-266,-61)" fill="purple" text-rendering="geometricPrecision" font-family="'Malgun Gothic'" shape-rendering="geometricPrecision" stroke="purple" font-weight="bold" stroke-miterlimit="1.45">
      <text x="1283.0195" xml:space="preserve" y="647.9268" clip-path="url(#clipPath2)" stroke="none">Test Network</text>
    </g>
    <g stroke-linecap="butt" transform="matrix(1,0,0,1,-266,-61)" fill="rgb(204,153,255)" text-rendering="geometricPrecision" shape-rendering="geometricPrecision" stroke="rgb(204,153,255)" stroke-width="2" stroke-miterlimit="1.45">
      <ellipse rx="48" fill="none" ry="21" clip-path="url(#clipPath2)" cx="1484.1" cy="534"/>
    </g>
    <g stroke-linecap="butt" font-size="14px" transform="matrix(1,0,0,1,-266,-61)" fill="purple" text-rendering="geometricPrecision" font-family="'Malgun Gothic'" shape-rendering="geometricPrecision" stroke="purple" font-weight="bold" stroke-miterlimit="1.45">
      <text x="1460.4032" xml:space="preserve" y="539.9268" clip-path="url(#clipPath2)" stroke="none">GitHub</text>
    </g>
    <g stroke-linecap="butt" transform="matrix(1,0,0,1,-266,-61)" fill="rgb(204,153,255)" text-rendering="geometricPrecision" shape-rendering="geometricPrecision" stroke="rgb(204,153,255)" stroke-width="2" stroke-miterlimit="1.45">
      <ellipse rx="48" fill="none" ry="21" clip-path="url(#clipPath2)" cx="1484.1" cy="638"/>
    </g>
    <g stroke-linecap="butt" font-size="14px" transform="matrix(1,0,0,1,-266,-61)" fill="purple" text-rendering="geometricPrecision" font-family="'Malgun Gothic'" shape-rendering="geometricPrecision" stroke="purple" font-weight="bold" stroke-miterlimit="1.45">
      <text x="1455.6761" xml:space="preserve" y="643.9268" clip-path="url(#clipPath2)" stroke="none">Ganache</text>
    </g>
    <g stroke-linecap="butt" transform="matrix(1,0,0,1,-266,-61)" fill="rgb(204,153,255)" text-rendering="geometricPrecision" shape-rendering="geometricPrecision" stroke="rgb(204,153,255)" stroke-width="2" stroke-miterlimit="1.45">
      <ellipse rx="48" fill="none" ry="21" clip-path="url(#clipPath2)" cx="1560" cy="674"/>
    </g>
    <g stroke-linecap="butt" transform="matrix(1,0,0,1,-266,-61)" fill="purple" text-rendering="geometricPrecision" font-family="'Malgun Gothic'" shape-rendering="geometricPrecision" stroke="purple" font-weight="bold" stroke-miterlimit="1.45">
      <text x="1511.335" xml:space="preserve" y="671.0996" clip-path="url(#clipPath2)" stroke="none">Local Standalone</text>
      <text x="1528.7871" xml:space="preserve" y="687.0605" clip-path="url(#clipPath2)" stroke="none">Besu Node</text>
    </g>
    <g stroke-linecap="butt" transform="matrix(1,0,0,1,-266,-61)" fill="rgb(204,153,255)" text-rendering="geometricPrecision" shape-rendering="geometricPrecision" stroke="rgb(204,153,255)" stroke-width="2" stroke-miterlimit="1.45">
      <ellipse rx="48" fill="none" ry="21" clip-path="url(#clipPath2)" cx="1484.1" cy="710"/>
    </g>
    <g stroke-linecap="butt" font-size="14px" transform="matrix(1,0,0,1,-266,-61)" fill="purple" text-rendering="geometricPrecision" font-family="'Malgun Gothic'" shape-rendering="geometricPrecision" stroke="purple" font-weight="bold" stroke-miterlimit="1.45">
      <text x="1464.2484" xml:space="preserve" y="715.9268" clip-path="url(#clipPath2)" stroke="none">Infura</text>
    </g>
    <g stroke-linecap="butt" transform="matrix(1,0,0,1,-266,-61)" fill="rgb(204,153,255)" text-rendering="geometricPrecision" shape-rendering="geometricPrecision" stroke="rgb(204,153,255)" stroke-width="2" stroke-miterlimit="1.45">
      <ellipse rx="48" fill="none" ry="21" clip-path="url(#clipPath2)" cx="1328" cy="750"/>
    </g>
    <g stroke-linecap="butt" font-size="14px" transform="matrix(1,0,0,1,-266,-61)" fill="purple" text-rendering="geometricPrecision" font-family="'Malgun Gothic'" shape-rendering="geometricPrecision" stroke="purple" font-weight="bold" stroke-miterlimit="1.45">
      <text x="1303.5889" xml:space="preserve" y="755.9268" clip-path="url(#clipPath2)" stroke="none">Testing</text>
    </g>
    <g stroke-linecap="butt" transform="matrix(1,0,0,1,-266,-61)" fill="rgb(204,153,255)" text-rendering="geometricPrecision" shape-rendering="geometricPrecision" stroke="rgb(204,153,255)" stroke-width="2" stroke-miterlimit="1.45">
      <ellipse rx="48" fill="none" ry="21" clip-path="url(#clipPath2)" cx="1328" cy="810"/>
    </g>
    <g stroke-linecap="butt" font-size="14px" transform="matrix(1,0,0,1,-266,-61)" fill="purple" text-rendering="geometricPrecision" font-family="'Malgun Gothic'" shape-rendering="geometricPrecision" stroke="purple" font-weight="bold" stroke-miterlimit="1.45">
      <text x="1290.9629" xml:space="preserve" y="815.9268" clip-path="url(#clipPath2)" stroke="none">Debugging</text>
    </g>
    <g stroke-linecap="butt" transform="matrix(1,0,0,1,-266,-61)" fill="rgb(204,153,255)" text-rendering="geometricPrecision" shape-rendering="geometricPrecision" stroke="rgb(204,153,255)" stroke-width="2" stroke-miterlimit="1.45">
      <ellipse rx="48" fill="none" ry="21" clip-path="url(#clipPath2)" cx="1003.75" cy="450"/>
    </g>
    <g stroke-linecap="butt" font-size="14px" transform="matrix(1,0,0,1,-266,-61)" fill="purple" text-rendering="geometricPrecision" font-family="'Malgun Gothic'" shape-rendering="geometricPrecision" stroke="purple" font-weight="bold" stroke-miterlimit="1.45">
      <text x="986.7114" xml:space="preserve" y="446.6162" clip-path="url(#clipPath2)" stroke="none">Code</text>
      <text x="958.9814" xml:space="preserve" y="465.2373" clip-path="url(#clipPath2)" stroke="none">Review/Audit</text>
    </g>
    <g stroke-linecap="butt" transform="matrix(1,0,0,1,-266,-61)" fill="rgb(204,153,255)" text-rendering="geometricPrecision" shape-rendering="geometricPrecision" stroke="rgb(204,153,255)" stroke-width="2" stroke-miterlimit="1.45">
      <ellipse rx="48" fill="none" ry="21" clip-path="url(#clipPath2)" cx="480" cy="210"/>
    </g>
    <g stroke-linecap="butt" font-size="14px" transform="matrix(1,0,0,1,-266,-61)" fill="purple" text-rendering="geometricPrecision" font-family="'Comic Sans MS'" shape-rendering="geometricPrecision" stroke="purple" font-weight="bold" stroke-miterlimit="1.45">
      <text x="452.1846" xml:space="preserve" y="215.6738" clip-path="url(#clipPath2)" stroke="none">Business</text>
    </g>
    <g stroke-linecap="butt" transform="matrix(1,0,0,1,-266,-61)" fill="rgb(204,153,255)" text-rendering="geometricPrecision" shape-rendering="geometricPrecision" stroke="rgb(204,153,255)" stroke-width="2" stroke-miterlimit="1.45">
      <ellipse rx="48" fill="none" ry="21" clip-path="url(#clipPath2)" cx="480" cy="360"/>
    </g>
    <g stroke-linecap="butt" font-size="14px" transform="matrix(1,0,0,1,-266,-61)" fill="purple" text-rendering="geometricPrecision" font-family="'Comic Sans MS'" shape-rendering="geometricPrecision" stroke="purple" font-weight="bold" stroke-miterlimit="1.45">
      <text x="448.8179" xml:space="preserve" y="355.9189" clip-path="url(#clipPath2)" stroke="none">Standard</text>
      <text x="463.1904" xml:space="preserve" y="375.4287" clip-path="url(#clipPath2)" stroke="none">Logic</text>
    </g>
    <g fill="rgb(255,255,153)" text-rendering="geometricPrecision" shape-rendering="geometricPrecision" transform="matrix(1,0,0,1,-266,-61)" stroke="rgb(255,255,153)">
      <ellipse rx="48" ry="21" clip-path="url(#clipPath2)" cx="330" cy="150" stroke="none"/>
    </g>
    <g stroke-linecap="butt" transform="matrix(1,0,0,1,-266,-61)" fill="rgb(204,153,255)" text-rendering="geometricPrecision" shape-rendering="geometricPrecision" stroke="rgb(204,153,255)" stroke-width="2" stroke-miterlimit="1.45">
      <ellipse rx="48" fill="none" ry="21" clip-path="url(#clipPath2)" cx="330" cy="150"/>
    </g>
    <g stroke-linecap="butt" font-size="14px" transform="matrix(1,0,0,1,-266,-61)" fill="purple" text-rendering="geometricPrecision" font-family="'Malgun Gothic'" shape-rendering="geometricPrecision" stroke="purple" font-weight="bold" stroke-miterlimit="1.45">
      <text x="316" xml:space="preserve" y="155.9268" clip-path="url(#clipPath2)" stroke="none">기부</text>
    </g>
    <g stroke-linecap="butt" transform="matrix(1,0,0,1,-266,-61)" fill="rgb(204,153,255)" text-rendering="geometricPrecision" shape-rendering="geometricPrecision" stroke="rgb(204,153,255)" stroke-width="2" stroke-miterlimit="1.45">
      <ellipse rx="48" fill="none" ry="21" clip-path="url(#clipPath2)" cx="330" cy="210"/>
    </g>
    <g stroke-linecap="butt" font-size="14px" transform="matrix(1,0,0,1,-266,-61)" fill="purple" text-rendering="geometricPrecision" font-family="'Malgun Gothic'" shape-rendering="geometricPrecision" stroke="purple" font-weight="bold" stroke-miterlimit="1.45">
      <text x="283.0781" xml:space="preserve" y="215.9268" clip-path="url(#clipPath2)" stroke="none">현금 흐름 추적</text>
    </g>
    <g fill="rgb(255,255,153)" text-rendering="geometricPrecision" shape-rendering="geometricPrecision" transform="matrix(1,0,0,1,-266,-61)" stroke="rgb(255,255,153)">
      <ellipse rx="48" ry="21" clip-path="url(#clipPath2)" cx="330" cy="300" stroke="none"/>
    </g>
    <g stroke-linecap="butt" transform="matrix(1,0,0,1,-266,-61)" fill="rgb(204,153,255)" text-rendering="geometricPrecision" shape-rendering="geometricPrecision" stroke="rgb(204,153,255)" stroke-width="2" stroke-miterlimit="1.45">
      <ellipse rx="48" fill="none" ry="21" clip-path="url(#clipPath2)" cx="330" cy="300"/>
    </g>
    <g stroke-linecap="butt" font-size="14px" transform="matrix(1,0,0,1,-266,-61)" fill="purple" text-rendering="geometricPrecision" font-family="'Malgun Gothic'" shape-rendering="geometricPrecision" stroke="purple" font-weight="bold" stroke-miterlimit="1.45">
      <text x="306.6074" xml:space="preserve" y="305.9268" clip-path="url(#clipPath2)" stroke="none">ERC 20</text>
    </g>
    <g fill="rgb(255,255,153)" text-rendering="geometricPrecision" shape-rendering="geometricPrecision" transform="matrix(1,0,0,1,-266,-61)" stroke="rgb(255,255,153)">
      <ellipse rx="48" ry="21" clip-path="url(#clipPath2)" cx="330" cy="352" stroke="none"/>
    </g>
    <g stroke-linecap="butt" transform="matrix(1,0,0,1,-266,-61)" fill="rgb(204,153,255)" text-rendering="geometricPrecision" shape-rendering="geometricPrecision" stroke="rgb(204,153,255)" stroke-width="2" stroke-miterlimit="1.45">
      <ellipse rx="48" fill="none" ry="21" clip-path="url(#clipPath2)" cx="330" cy="352"/>
    </g>
    <g stroke-linecap="butt" font-size="14px" transform="matrix(1,0,0,1,-266,-61)" fill="purple" text-rendering="geometricPrecision" font-family="'Malgun Gothic'" shape-rendering="geometricPrecision" stroke="purple" font-weight="bold" stroke-miterlimit="1.45">
      <text x="302.5503" xml:space="preserve" y="357.9268" clip-path="url(#clipPath2)" stroke="none">ERC 721</text>
    </g>
    <g fill="rgb(255,255,153)" text-rendering="geometricPrecision" shape-rendering="geometricPrecision" transform="matrix(1,0,0,1,-266,-61)" stroke="rgb(255,255,153)">
      <ellipse rx="48" ry="21" clip-path="url(#clipPath2)" cx="330" cy="404" stroke="none"/>
    </g>
    <g stroke-linecap="butt" transform="matrix(1,0,0,1,-266,-61)" fill="rgb(204,153,255)" text-rendering="geometricPrecision" shape-rendering="geometricPrecision" stroke="rgb(204,153,255)" stroke-width="2" stroke-miterlimit="1.45">
      <ellipse rx="48" fill="none" ry="21" clip-path="url(#clipPath2)" cx="330" cy="404"/>
    </g>
    <g stroke-linecap="butt" font-size="14px" transform="matrix(1,0,0,1,-266,-61)" fill="purple" text-rendering="geometricPrecision" font-family="'Malgun Gothic'" shape-rendering="geometricPrecision" stroke="purple" font-weight="bold" stroke-miterlimit="1.45">
      <text x="302.5503" xml:space="preserve" y="409.9268" clip-path="url(#clipPath2)" stroke="none">ERC 777</text>
    </g>
    <g fill="rgb(255,255,153)" text-rendering="geometricPrecision" shape-rendering="geometricPrecision" transform="matrix(1,0,0,1,-266,-61)" stroke="rgb(255,255,153)">
      <ellipse rx="48" ry="21" clip-path="url(#clipPath2)" cx="330" cy="456" stroke="none"/>
    </g>
    <g stroke-linecap="butt" transform="matrix(1,0,0,1,-266,-61)" fill="rgb(204,153,255)" text-rendering="geometricPrecision" shape-rendering="geometricPrecision" stroke="rgb(204,153,255)" stroke-width="2" stroke-miterlimit="1.45">
      <ellipse rx="48" fill="none" ry="21" clip-path="url(#clipPath2)" cx="330" cy="456"/>
    </g>
    <g stroke-linecap="butt" font-size="14px" transform="matrix(1,0,0,1,-266,-61)" fill="purple" text-rendering="geometricPrecision" font-family="'Malgun Gothic'" shape-rendering="geometricPrecision" stroke="purple" font-weight="bold" stroke-miterlimit="1.45">
      <text x="298.4932" xml:space="preserve" y="461.9268" clip-path="url(#clipPath2)" stroke="none">ERC 1400</text>
    </g>
    <g stroke-linecap="butt" transform="matrix(1,0,0,1,-266,-61)" fill="rgb(204,153,255)" text-rendering="geometricPrecision" shape-rendering="geometricPrecision" stroke="rgb(204,153,255)" stroke-width="2" stroke-miterlimit="1.45">
      <path fill="none" d="M719 259 L762 259" clip-path="url(#clipPath2)"/>
      <path fill="none" d="M840.6713 242.8464 L929.3287 196.1536" clip-path="url(#clipPath2)"/>
      <path fill="none" d="M854.3898 266.9902 L915.6102 278.0098" clip-path="url(#clipPath2)"/>
      <path fill="none" d="M984.8555 268.0108 L1113.0449 185.3761" clip-path="url(#clipPath2)"/>
      <path fill="none" d="M1176.4662 154.3446 L1291.5338 111.2554" clip-path="url(#clipPath2)"/>
      <path fill="none" d="M1186.8903 163.5105 L1281.1097 154.4895" clip-path="url(#clipPath2)"/>
      <path fill="none" d="M998.5083 273.4634 L1101.4917 239.9366" clip-path="url(#clipPath2)"/>
      <path fill="none" d="M1186.9607 223.0536 L1281.0393 214.3464" clip-path="url(#clipPath2)"/>
      <path fill="none" d="M1184.2061 235.5828 L1283.7939 254.0172" clip-path="url(#clipPath2)"/>
      <path fill="none" d="M1366.6824 249.7664 L1451.7177 222.4336" clip-path="url(#clipPath2)"/>
      <path fill="none" d="M1375.0564 266.3435 L1436.7551 271.7763" clip-path="url(#clipPath2)"/>
      <path fill="none" d="M1001.903 296.243 L1098.097 319.757" clip-path="url(#clipPath2)"/>
      <path fill="none" d="M985.6005 303.7639 L1114.3995 393.1361" clip-path="url(#clipPath2)"/>
      <path fill="none" d="M1188 330 L1280 330" clip-path="url(#clipPath2)"/>
      <path fill="none" d="M1187.7214 408.6408 L1280.2786 404.2592" clip-path="url(#clipPath2)"/>
      <path fill="none" d="M1178.3015 423.5718 L1302.8436 512.1151" clip-path="url(#clipPath2)"/>
      <path fill="none" d="M1368.3505 390.6264 L1443.7495 369.3736" clip-path="url(#clipPath2)"/>
      <path fill="none" d="M1375.7391 399.8135 L1542.2609 392.1865" clip-path="url(#clipPath2)"/>
      <path fill="none" d="M1374.4149 407.3521 L1437.6851 414.6479" clip-path="url(#clipPath2)"/>
      <path fill="none" d="M1365.9834 414.8394 L1470 450 L1543.2068 457.3207" clip-path="url(#clipPath2)"/>
      <path fill="none" d="M1359.1649 417.9717 L1452.9352 466.0283" clip-path="url(#clipPath2)"/>
      <path fill="none" d="M1170.2402 427.1768 L1237.2269 541.6478 L1243.3225 549.0825 L1251.5082 554.1251 L1293.2432 571.5164" clip-path="url(#clipPath2)"/>
      <path fill="none" d="M1376 586 L1436.1 586" clip-path="url(#clipPath2)"/>
      <path fill="none" d="M1159.8601 430.0032 L1240.8379 606.9073 L1246.3452 614.4742 L1254.5427 618.9893 L1288.9725 629.7745" clip-path="url(#clipPath2)"/>
      <path fill="none" d="M1375.9178 531.2279 L1436.1821 532.7721" clip-path="url(#clipPath2)"/>
      <path fill="none" d="M1375.9178 640.7721 L1436.1821 639.2279" clip-path="url(#clipPath2)"/>
      <path fill="none" d="M1373.0957 649.2515 L1450.5347 674 L1512 674" clip-path="url(#clipPath2)"/>
      <path fill="none" d="M1365.8307 654.9182 L1451.2358 694.6941" clip-path="url(#clipPath2)"/>
      <path fill="none" d="M1148.3838 431.5772 L1241 660 L1309.3033 730.6586" clip-path="url(#clipPath2)"/>
      <path fill="none" d="M1137.7609 431.8896 L1241.5347 750 L1302.4004 792.2359" clip-path="url(#clipPath2)"/>
      <path fill="none" d="M965.5644 306.8584 L998.1856 429.1416" clip-path="url(#clipPath2)"/>
      <path fill="none" d="M589.7941 242.4091 L519.7903 221.7453" clip-path="url(#clipPath2)"/>
      <path fill="none" d="M609.1213 281.4382 L508.0225 342.9502" clip-path="url(#clipPath2)"/>
      <path fill="none" d="M444.5746 195.8298 L365.4254 164.1702" clip-path="url(#clipPath2)"/>
      <path fill="none" d="M432 210 L378 210" clip-path="url(#clipPath2)"/>
      <path fill="none" d="M444.5746 345.8298 L365.4254 314.1702" clip-path="url(#clipPath2)"/>
      <path fill="none" d="M432.3527 357.4588 L377.6473 354.5412" clip-path="url(#clipPath2)"/>
      <path fill="none" d="M440.1318 371.6947 L369.8682 392.3053" clip-path="url(#clipPath2)"/>
      <path fill="none" d="M452.9118 377.3364 L357.0882 438.6636" clip-path="url(#clipPath2)"/>
    </g>
  </g>
</svg>
